<?xml version="1.0" encoding="UTF-8" standalone="no"?>
<!-- Uploaded to: SVG Repo, www.svgrepo.com, Generator: SVG Repo Mixer Tools -->

<svg
   fill="#000000"
   width="800px"
   height="800px"
   viewBox="0 0 32 32"
   version="1.1"
   id="svg1"
   sodipodi:docname="arch-linux-svgrepo-com.svg"
   xml:space="preserve"
   inkscape:version="1.4 (e7c3feb100, 2024-10-09)"
   xmlns:inkscape="http://www.inkscape.org/namespaces/inkscape"
   xmlns:sodipodi="http://sodipodi.sourceforge.net/DTD/sodipodi-0.dtd"
   xmlns="http://www.w3.org/2000/svg"
   xmlns:svg="http://www.w3.org/2000/svg"><defs
     id="defs1" /><sodipodi:namedview
     id="namedview1"
     pagecolor="#ffffff"
     bordercolor="#000000"
     borderopacity="0.25"
     inkscape:showpageshadow="2"
     inkscape:pageopacity="0.0"
     inkscape:pagecheckerboard="0"
     inkscape:deskcolor="#d1d1d1"
     inkscape:zoom="0.77"
     inkscape:cx="501.2987"
     inkscape:cy="96.103896"
     inkscape:window-width="1904"
     inkscape:window-height="1051"
     inkscape:window-x="20"
     inkscape:window-y="20"
     inkscape:window-maximized="0"
     inkscape:current-layer="svg1" /><path
     d="m 15.188,0.807 c -1.354,3.313 -2.167,5.484 -3.672,8.703 0.922,0.979 2.057,2.12 3.896,3.406 C 13.433,12.098 12.084,11.281 11.073,10.432 9.146,14.458 6.125,20.182 0,31.192 4.818,28.411 8.547,26.697 12.026,26.041 11.88,25.4 11.792,24.708 11.797,23.978 l 0.005,-0.151 c 0.078,-3.089 1.682,-5.458 3.583,-5.297 1.901,0.161 3.38,2.792 3.307,5.88 -0.016,0.578 -0.083,1.135 -0.198,1.656 3.443,0.672 7.135,2.38 11.885,5.125 -0.938,-1.724 -1.771,-3.281 -2.573,-4.76 -1.255,-0.974 -2.568,-2.245 -5.24,-3.62 1.839,0.479 3.151,1.031 4.177,1.646 C 18.623,9.348 17.972,7.337 15.186,0.806 Z"
     id="path1"
     sodipodi:nodetypes="ccccccccscccccccc"
     style="fill:#37aebc;fill-opacity:1" /></svg>
